<svg id="Capa_1" data-name="Capa 1" xmlns="http://www.w3.org/2000/svg" viewBox="0 0 180.92 119.58"><defs><style>.cls-1{fill:#034b8e;}.cls-2{fill:#08498a;}.cls-3{fill:#0d4881;}.cls-4{fill:#0d4782;}.cls-5{fill:#094987;}.cls-6{fill:#0a4a8a;}.cls-7{fill:#124577;}.cls-8{fill:#0a4a87;}.cls-9{fill:#0d4a87;}.cls-10{fill:#0e4e8c;}.cls-11{fill:#144774;}.cls-12{fill:#194472;}.cls-13{fill:#124678;}.cls-14{fill:#074d96;}.cls-15{fill:#174777;}.cls-16{fill:#033368;}.cls-17{fill:#16406f;}.cls-18{fill:#204f7d;}.cls-19{fill:#103c68;}.cls-20{fill:#163e6f;}.cls-21{fill:#1c4771;}.cls-22{fill:#154372;}.cls-23{fill:#0e4071;}.cls-24{fill:#0a2a57;}.cls-25{fill:#0a3764;}.cls-26{fill:#1c416f;}.cls-27{fill:#002256;}.cls-28{fill:#08274d;}.cls-29{fill:#092b4c;}.cls-30{fill:#032347;}.cls-31{fill:#62c193;}.cls-32{fill:#f5e321;}.cls-33{fill:#054b8b;}.cls-34{fill:#15454f;}.cls-35{fill:#19494f;}.cls-36{fill:#64beaf;}.cls-37{fill:#63b8aa;}.cls-38{fill:#004a75;}.cls-39{fill:#e3e43f;}.cls-40{fill:#075176;}.cls-41{fill:#034b74;}.cls-42{fill:#316457;}.cls-43{fill:#d3e993;}.cls-44{fill:#085273;}.cls-45{fill:#344f2f;}.cls-46{fill:#698755;}.cls-47{fill:#133a61;}.cls-48{fill:#133c64;}.cls-49{fill:#094989;}.cls-50{fill:#074e86;}.cls-51{fill:#034e86;}.cls-52{fill:#65b8b2;}.cls-53{fill:#6bc3b4;}.cls-54{fill:#325616;}.cls-55{fill:#49704c;}.cls-56{fill:#61b5bb;}.cls-57{fill:#f6e41e;}.cls-58{fill:#d8e161;}.cls-59{fill:#003d58;}.cls-60{fill:#4b6e5a;}.cls-61{fill:#dde57c;}</style></defs><title>th2</title><path class="cls-1" d="M59.83,72.73a1.38,1.38,0,0,1-1.53-.57,30.34,30.34,0,0,0-6.51-3.4A49.77,49.77,0,0,1,35.45,56.31a29.3,29.3,0,0,1-7.07-13.6c-1.81-8.23,1.54-15.1,6.6-21.21a31.21,31.21,0,0,1,9.28-8,2.23,2.23,0,0,0,1.4-1.61c9.39-6.47,20.09-9.3,31.15-10.81,19-2.6,37.4-.63,54.74,7.89,6.82,3.35,13.36,7.34,17.42,14.2A77.11,77.11,0,0,0,153.66,32c2.15,5.43,1.62,10.75-.69,16-2.73,3.42-4.54,7.48-7.62,10.65-5.56,5.25-12.24,8.73-19,12a157.94,157.94,0,0,1-20.79,6c-5.23,0-10.44.42-15.67.42a90,90,0,0,1-26.76-4A7.08,7.08,0,0,0,59.83,72.73Z" transform="translate(-2.01)"/><path class="cls-2" d="M33.64,95.21a.86.86,0,0,1,.7-.06c2,.65,4.34.61,6,2.21a1.16,1.16,0,0,0,1.88-.16c2.72-3.11,5.9-2.79,9.25-1.28a3.92,3.92,0,0,1,2.38,2.72c1.21,4.51,1.83,9,.21,13.59-2.15.14-4.41.73-6.05-1.4-.06-2.46-.18-4.93-.18-7.4,0-1.93-.4-3.65-2.66-3.63S42,101.36,42,103.51s-.14,4.44-.22,6.66c-.85,2.91-3.69,1-5.24,2.14-1.29-2.93-.45-6-.61-9-.09-1.81-.46-3.17-2.35-3.71C32.19,98.1,31.36,96.63,33.64,95.21Z" transform="translate(-2.01)"/><path class="cls-3" d="M15.79,108c-1.61.08-3.57.85-4.41-1.53,1-1,2.34-.64,3.52-.58,3.46.16,5.42-1.34,5.83-4.8,0-.83.05-1.68-.87-2.15-4.37-6-11.77-5.75-16.23.67-2.16,1.72-1.69,4-1.25,6.22,1.23,6,6,8.69,13.65,7.84,2-.23,4.22-.64,4-3.42S17.71,107.93,15.79,108Zm-7.14-7.8s0-.06,0-.09c.55-1.55,2.3-1.77,3.71-1.82s2.94,0,3.95,1.11a1.2,1.2,0,0,1,.21,1.34,1.16,1.16,0,0,1-1.19,1.09c-1.89,0-3.77.16-5.66.19A1.19,1.19,0,0,1,8.65,100.22Z" transform="translate(-2.01)"/><path class="cls-4" d="M106.44,105.87c5.08-.12,5.44-.4,6.21-5.32.26-2.53-1.67-3.5-3.33-4.67a12.7,12.7,0,0,0-6.87-.95c-3.77.57-6.84,3.36-7.34,6.81-.67,4.69,1.15,8.69,4.91,10.22s7.67,1.71,11.39-.43c1.25-.79,1-1.87.41-2.87-.78-1.31-2-1-3.29-.83-2.19.34-4.6,1.46-6-1.48C103.71,105.43,105.12,105.9,106.44,105.87Zm-4.06-4.29a1.25,1.25,0,0,1-1.21-1.57,3,3,0,0,1,2.79-1.9,7.52,7.52,0,0,1,1.71,0c.32,0,.66.06,1,.11a7.43,7.43,0,0,1,1.12.39,1.16,1.16,0,0,1,.85,1,1.12,1.12,0,0,1-.72,1.74l-.34,0h-.16C105.72,101.57,104.05,101.43,102.38,101.58Z" transform="translate(-2.01)"/><path class="cls-5" d="M160.89,111.63c-.15-1.23-.39-1.35-1.6-.6-6.43,4-10.89,1.5-11.18-6-.11-3.09.42-6.22-.36-9.29,1.6-1.14,3.37-.48,5.08-.48,1.07,2.86-.25,5.93.75,8.8.72,1.88.86,4.5,3.9,3.85,2.66-.57,2.49-2.92,2.8-5,.39-2.53-1.14-5.27.85-7.61,4.46.51,4.47.51,4.48,5.14,0,2.62,0,5.24,0,7.86,0,1.54-.07,3-1.48,4C163,112.36,161.75,112.94,160.89,111.63Z" transform="translate(-2.01)"/><path class="cls-6" d="M144.63,95.82c-.33,1.75.36,4.29-3,3.69-.71-.13-1.16.44-1.19,1.13a37.18,37.18,0,0,0-.09,5.58c.2,2,1.41,2.94,3.56,2.92,1.24,0,.73,1.34.86,2.11.19,1.15-.65,1.44-1.54,1.69a6.36,6.36,0,0,1-8.47-5.77c-.15-1.48-.09-3-.14-4.47s.4-3.07-2.17-3.42c-2.28-.32-.9-2.66-1.21-4.08l3.47-.12a3,3,0,0,0,.94-2,2.54,2.54,0,0,1,2.84-1.9c1.82,0,1,1.6,1.19,2.56.09.48,0,1,.59,1.19C141.76,95.17,143.32,94.85,144.63,95.82Z" transform="translate(-2.01)"/><path class="cls-7" d="M45.66,11.88c1.29,1.55-.23,1.88-1.1,2.36-8.05,4.45-13,11.3-15.53,20-1.78,6,1.36,16.11,6.18,20.24a24.22,24.22,0,0,1,4.38,5.26c2,3,5.53,4.74,8.85,6.41s7.35,2.71,9.86,6C48.2,69,39.5,63.62,33,55.11,24.85,44.39,25.4,31.6,34.26,21.28,37.52,17.48,41.06,14.05,45.66,11.88Z" transform="translate(-2.01)"/><path class="cls-8" d="M80.88,111.62c-.06-4.47-.16-8.94-.14-13.41,0-1-.65-2.44.73-2.95a3.58,3.58,0,0,1,3.82.66c1,1,1.61,1.23,2.64.09a3.15,3.15,0,0,1,4-.84c1.15.61,1,1.84,1,3,.09,2.38-1.77,1.5-2.89,1.76-2.59.6-3.08,2.5-3.28,4.75-.22,2.52.64,5.12-.58,7.55-1-1.21-.25-2.49-.29-3.51C86,112.23,83.62,112.24,80.88,111.62Z" transform="translate(-2.01)"/><path class="cls-9" d="M118.38,108.79l3.73.49c1.44.6,1.65-.48,1.84-1.42a1.83,1.83,0,0,0-1.06-2.17c-1-.48-2.13-.71-3.15-1.17-1.75-.8-3.41-1.85-3.5-4-.09-2.34,1.68-3.4,3.46-4.44,1-.6,2.22-.29,3.16-1l1.48-.11c.42.59,1.07.43,1.64.53a.91.91,0,0,1,.88,1c0,.77-.51,1-1.17,1-1.55,0-3.17-.23-4.19,1.36-.32,2.69,2,2.49,3.45,3,5.42,1.92,6.36,4.81,3,9.64-3.14,1.21-6.3,2.37-9.69.89C116.25,111.19,116.43,110,118.38,108.79Z" transform="translate(-2.01)"/><path class="cls-10" d="M24,112.29a57.57,57.57,0,0,0,0-10.42c.67-2.11-.44-4.41.65-6.49.82,2.5,3.5.31,4.69,1.86v-.09c.37.62,1.39,1.16,1.14,1.79-1.63,4.15.08,8.79-2,12.84C27.08,113.09,25.48,112.18,24,112.29Z" transform="translate(-2.01)"/><path class="cls-11" d="M59.83,72.73c.68-1.08,1.69-1,2.66-.62,14.28,5.24,29.15,4.27,43.94,4.2a.56.56,0,0,1,.94.2c-10.71,2.14-21.45,1.81-32.18.26C69.93,76,64.7,75,59.83,72.73Z" transform="translate(-2.01)"/><path class="cls-12" d="M68.11,113.16c-1.15-.91-3-.66-3.77-2.16,1.13-1.26,1.13-1.26,2.63-1,3.68.77,6-.26,7.25-3.29A6.92,6.92,0,0,0,72,98.15c-2-1.52-2.79-.85-2.93,1.39-2,.27-3.66,1.64-5.75,1.47A2.68,2.68,0,0,1,63,98.86a3.63,3.63,0,0,1,.56-1c2.37-3.33,5.31-3.68,9-2.16,3.92,1.64,4.5,4.91,4.55,8.41,0,3.69-1.27,6.82-5,8.32A19.17,19.17,0,0,1,68.11,113.16Z" transform="translate(-2.01)"/><path class="cls-13" d="M176.89,97.39c.73-2.15,2.55-2.65,4.45-2.58,1.41,0,1.48,1.41,1.56,2.54.12,1.57-.18,2.6-2.16,2.56-3.06-.07-3.92,2-4.16,4.64s.57,5.14-.48,7.63c-.58-.46-1.35-.66-1.83-1.28a3.74,3.74,0,0,1-.45-1.07C173.23,105.28,173.89,101.05,176.89,97.39Z" transform="translate(-2.01)"/><path class="cls-14" d="M176.89,97.39c-1.36,4.38-2.95,8.72-2.3,13.44a2.28,2.28,0,0,1-2.82-2.26,40.87,40.87,0,0,1,0-9.7c.29-2,2.05-2.67,3.92-2.87C176,96.6,176,97.38,176.89,97.39Z" transform="translate(-2.01)"/><path class="cls-13" d="M175.73,96c-4.56,2.27-3.23,6.47-3.39,10.2-.08,2,.2,3.71,2.25,4.63l0,.07c-1.12,1.48-1.37,1.48-3.79,0-.1-4.19-.25-8.39-.28-12.58C170.53,94.67,172.12,94,175.73,96Z" transform="translate(-2.01)"/><path class="cls-15" d="M122.86,95.14c-1,.62-2.07,1.25-3.12,1.86-1.39.82-3,1.58-2.79,3.53s1.76,3.15,3.67,3.68c2.27.63,4.38,1.37,3.71,4.43-.34,1.57-1.06,1.9-2.22.64,2.21-1.33,2.21-2.48-.28-3.41-.58-.22-1.17-.37-1.75-.59-5-1.82-5.74-3.92-3.22-8.66C118.77,95.74,120.56,94.42,122.86,95.14Z" transform="translate(-2.01)"/><path class="cls-16" d="M164.13,112.28c1.41-4.75.45-9.62.72-14.42.17-2.93-2.76-1.34-3.72-2.6,5-.27,5-.27,5,4.63,0,3.5-.1,7,0,10.49C166.25,112,165.83,112.73,164.13,112.28Z" transform="translate(-2.01)"/><path class="cls-17" d="M126.64,70.36c1.48-2.25,4.19-2.56,6.32-3.53,4.69-2.13,7.79-6.38,12.41-8.47a.42.42,0,0,1,.71,0c-5,5.83-11.41,9.57-18.61,12.05A.53.53,0,0,1,126.64,70.36Z" transform="translate(-2.01)"/><path class="cls-18" d="M28.43,111.78a62.35,62.35,0,0,0,.85-14.63c1.93.43,2.47-2.28,4.36-1.94-1.34,1.43-.22,2.91-.07,4.37-2.49.54-3.45,2.2-3.41,4.63,0,2.24-.07,4.49,0,6.74C30.22,112.7,29.43,112.38,28.43,111.78Z" transform="translate(-2.01)"/><path class="cls-19" d="M126.64,70.36l.83.06a56,56,0,0,1-20.1,6.09l-.94-.2Z" transform="translate(-2.01)"/><path class="cls-15" d="M121.5,98.91c-1.41-1.26,0-1.52.74-1.92,1.24-.7,2.58-.21,3.92-.16.1-1.38-1.66-.77-1.82-1.8l3.81.08c1,2.87,1.28,5-3,3.56C124.07,98.31,122.72,98.81,121.5,98.91Z" transform="translate(-2.01)"/><path class="cls-20" d="M146.08,58.37h-.71c2.23-3.56,4.47-7.13,6.74-10.67A4.46,4.46,0,0,1,153,48,23.28,23.28,0,0,1,146.08,58.37Z" transform="translate(-2.01)"/><path class="cls-21" d="M140.3,95c-.94-.27-.85-1.07-1-1.81-.34-2.46-1.85-1.1-2.57-.52s-.68,2.15-2,2.44c.54-1.36-.83-3.35,1.28-4.18,1.24-.49,3.18-1.53,3.7-1.07C141.19,91.11,140.1,93.22,140.3,95Z" transform="translate(-2.01)"/><path class="cls-22" d="M153.66,32l-.59.37c-1.46-3-4.12-5.53-4.1-9.22A16,16,0,0,1,153.66,32Z" transform="translate(-2.01)"/><path class="cls-23" d="M29.28,97.24c-.58,0-1.41-.3-1.71,0-3.38,3.16-2.81.09-3-1.84C26.32,95.6,29,93.31,29.28,97.24Z" transform="translate(-2.01)"/><path class="cls-24" d="M80.88,111.62c2.42-.25,5.26,0,5.08-3.78.07,1.46.13,2.92.2,4.38C84.38,112.22,82.48,113.26,80.88,111.62Z" transform="translate(-2.01)"/><path class="cls-25" d="M63.52,97.86l.09,1c-2.88.81-3.6-2.52-5.8-3l-.28,0C60.16,94.62,62.56,94,63.52,97.86Z" transform="translate(-2.01)"/><path class="cls-26" d="M118.38,108.79c.32,1.23-1.89,2.41-.08,3.67l-2.19-.09C116.66,111.05,113.55,107.4,118.38,108.79Z" transform="translate(-2.01)"/><path class="cls-27" d="M153.58,104c-1.52-2.82-.29-5.88-.75-8.8C154.74,98,153.37,101.09,153.58,104Z" transform="translate(-2.01)"/><path class="cls-18" d="M40.37,97.36a19.45,19.45,0,0,1-6-2.21C36.82,94.61,39.07,94.68,40.37,97.36Z" transform="translate(-2.01)"/><path class="cls-28" d="M36.53,112.31c.16-1,.67-1.52,1.72-1,1.55.76,2.41-.57,3.52-1.14.22,1.27.48,2.51-1.57,2.28C39,112.31,37.75,112.35,36.53,112.31Z" transform="translate(-2.01)"/><path class="cls-29" d="M170.84,110.86c1.27-.17,2.51,1.61,3.79,0a1.31,1.31,0,0,1,1.47,1.28C174.28,112,171.94,113.91,170.84,110.86Z" transform="translate(-2.01)"/><path class="cls-30" d="M53.15,112.25l-5.28.1c.06-.51.12-1,.17-1.52C49.5,112.2,51.83,110.42,53.15,112.25Z" transform="translate(-2.01)"/><path class="cls-31" d="M80.81,19.46c3.84,1.16,5.28,4.71,7.45,7.54a2,2,0,0,1,.77.66c1.16,1.91,1.47,4.2,2.73,6.06a3.34,3.34,0,0,1,.12,1.63c-.11,3-1.17,5.2-4.66,5.16-7.49.32-15,.05-22.49.17-1.17,0-2.78-.57-3.38.84s.54,2.62,1.4,3.65c2.37,2.83,5.47,3.25,8.87,2.47s6.17-3.54,10.14-3.1c4.33.49,5.1,1,4.88,5.5a5.18,5.18,0,0,1-4.18,4C78,55.15,73.71,56.91,69,56.69S59.57,56,55.35,53.48c-2.87-1.72-5.21-3.81-6-7.27-.51-2.29-2.89-3.41-3.69-5.56a30.67,30.67,0,0,1-.19-8.12c1.38-3.55,1.35-7.82,5.11-10.18,3-.84,5.21-3.16,8.14-4.37,7-2.89,13.46-2.69,20,.78C79.37,19.1,80,19.63,80.81,19.46Z" transform="translate(-2.01)"/><path class="cls-32" d="M97.55,37.7a15.23,15.23,0,0,0,6.53,2c2.65,1,5.57,1,8.1,2.4l.44.61c3,.45,6,1.08,8.53,3.1,4.09,3.2,5,6,3.1,10.95-1.62,3.14-4.35,5-7.38,6.58-9.81,5.3-20.43,6-31.24,5.81a10.49,10.49,0,0,1-1.12-.05c-2.79-.36-5.6-.81-6.53-4-.71-2.46,1.06-5.39,4.11-7.22A61,61,0,0,0,113,56.06,10.53,10.53,0,0,0,116.93,54c2.07-1.86,1.65-4-.83-5.22a53,53,0,0,0-16.83-4.35c-6-.7-6.14-.65-6.58-6.73a10.62,10.62,0,0,1,0-4.09,2.5,2.5,0,0,1,2.62-.54c2,.92-.39,3.29,1.38,4.3A3,3,0,0,0,97.55,37.7Z" transform="translate(-2.01)"/><path class="cls-33" d="M82.65,53.2c1.72-.39,2.66-1.73,3.62-3,.12-1.27,1-1.81,2.07-2.13,2.65.68,2.81-2.24,4.43-3.07a41.15,41.15,0,0,1,11.06,1.14A7.63,7.63,0,0,0,110.4,48a8.22,8.22,0,0,1,2.74.92c1.14.65,2.56,1.24,2.53,2.8s-1.21,2.53-2.84,2.73c-2.36-1.06-7.07.15-9,2.33-2.09,1.41-4.45,1.07-6.76,1-2.47-1.24-5-.48-7.51-.16a13.4,13.4,0,0,0-3.52-.27,3.67,3.67,0,0,1-1-.28c-2.43-1.33-4.09,0-5.73,1.58-.7.67-.69,2.21-2.24,1.85-.28-1.39-.59-2.72-2.15-.85-.15.18-.19.48-.36.64-1.29,1.2-2.45,3.94-4.12,2.92-1.88-1.16,1.63-2.16,1.36-3.78a5.1,5.1,0,0,1,0-1.1,3.4,3.4,0,0,1,3.19-1.13c.12,0,.29.12.39-.05a.86.86,0,0,1-.77-.59C77.13,55,80,54.32,82.65,53.2Z" transform="translate(-2.01)"/><path class="cls-34" d="M88.44,27.66a1.55,1.55,0,0,1-.18-.66c4.89-5.63,11.51-8.2,18.48-9.54,7.39-1.43,14.87-2.71,22.5-1.26,2.24.43,4.45.75,4.72,3.3.33,3,.51,6.28-2.55,8.36-3.58,2.42-8.06,3.17-11.35,6.21a2.4,2.4,0,0,1-3.39-.51c-1-1.44-.75-2.82.94-3.71a2.54,2.54,0,0,1,.65.77c.35.57.9,1.06,1.52.67,3.07-1.9,6.53-3.07,9.53-5.08a7.29,7.29,0,0,0,.86-.72A5.34,5.34,0,0,0,131.7,20c-.48-1.82-2.57-1.79-4.12-1.84-7.09-.23-14.2-.5-21.08,1.81a37.85,37.85,0,0,0-15.93,7.41A2.47,2.47,0,0,1,88.44,27.66Z" transform="translate(-2.01)"/><path class="cls-35" d="M97.43,37.24c4.14-1.84,24,6.32,26.37,8.6,3,2.87,3.66,6.84,2.12,11-2.39,6.44-8.14,8.38-13.73,10.39-9.4,3.36-19.22,3.44-29,3.13A9,9,0,0,1,78.58,69l.38-.48a4.08,4.08,0,0,1,2.91-.28,62.43,62.43,0,0,0,28.76-2.59c4.9-1.58,9.89-3.46,12.94-8.17,2.8-6.35.59-11-6.56-13.71C116.09,43.44,98.11,38.06,97.43,37.24Z" transform="translate(-2.01)"/><path class="cls-36" d="M82.65,53.2c-2.22,2.16-5.29,2.44-8,3.58-6.59.63-13.23,1.72-19.28-2.27L54.57,54c-4.07-.62-5.9-3.85-7.45-7a10.42,10.42,0,0,1-1.35-4.92,1.7,1.7,0,0,1,.61-1,11.33,11.33,0,0,1,4.42,6.41c.77,3.1,3.91,5.3,7.28,6.37,7,2.23,14,2.76,21,0A6.21,6.21,0,0,1,82.65,53.2Z" transform="translate(-2.01)"/><path class="cls-37" d="M80.81,19.46c-1.12,1.16-2.34.15-3-.3-4.47-2.87-9.44-2.31-14.19-1.88-3,.27-6,1.85-8.57,3.65-1.34.93-2.49,2.07-4.23,2.16.61-3.94,4-4.59,6.9-5.92l0,0c6.72-2.93,13.45-3.32,20.18,0Z" transform="translate(-2.01)"/><path class="cls-38" d="M46.31,42C47,47.43,50,51.2,54.57,54c-2.08,1.07-3.1.57-4.68-1.5a35.72,35.72,0,0,1-6.79-17c-.33-2.18.16-3.64,2.5-4.07A1.63,1.63,0,0,1,46,32.57C46.17,35.7,45.57,38.86,46.31,42Z" transform="translate(-2.01)"/><path class="cls-39" d="M96.82,38c-3.06-.86-1.5-2.75-1-4.4-.07-.37-.18-.8.09-1.06,5.27-5.1,11.92-6.59,18.89-7.15a1.6,1.6,0,0,1,1.6,1.31c-.64,2.45-2.91.54-4.09,1.54-4.41,1-9,1.64-12.62,4.66C97.89,34.14,95.72,35.15,96.82,38Z" transform="translate(-2.01)"/><path class="cls-40" d="M45.69,32.27l-.09-.88c.78-5.33,2.39-10.16,7.48-13.06a6.88,6.88,0,0,1,4.6-1.16c-2.26,2-5.36,3.06-6.9,5.92-2.85,2.28-3.93,5.44-4.45,8.89A.42.42,0,0,1,45.69,32.27Z" transform="translate(-2.01)"/><path class="cls-41" d="M77.81,17.16a33.33,33.33,0,0,0-20.18,0c3.83-3.11,8.43-3.36,12.9-2.75C73,14.79,76.17,14.21,77.81,17.16Z" transform="translate(-2.01)"/><path class="cls-42" d="M77.11,60.54c1.25-2.27,2.59-4.4,5.47-4.9,1.27-.22,2.46-.64,3,1a1.65,1.65,0,0,1-.75.75,4.07,4.07,0,0,1-1.59.19C78.93,59,77,63,78.71,67a1.7,1.7,0,0,1,0,1.73l-.16.32C74.92,65.83,74.56,63.75,77.11,60.54Z" transform="translate(-2.01)"/><path class="cls-43" d="M114.4,42.54a48.16,48.16,0,0,1,4.88,1.79c5.8,2.85,7.33,7.13,4.85,13.22-1.14-.1-1-.67-.51-1.36,2.46-6.51-1.71-9.58-7.38-12.07-1.18-.52-2.65-.34-3.62-1.44Z" transform="translate(-2.01)"/><path class="cls-44" d="M55.4,54.51c6.18,2.86,12.72,2.66,19.28,2.27l1.47.16.14.5-4.42.93c-4.31-1.64-9,.11-13.3-1.43C57.2,56.45,55.56,56.51,55.4,54.51Z" transform="translate(-2.01)"/><path class="cls-45" d="M112.32,28.26c1.06-1.14,2.8-.24,3.89-1.28,2.09-1.46,4.11-1.86,6,.39-1.09,1.64-2.24,3.21-4.44,3.43l-.11-.95c.47-1,.23-1.54-1-1.51C115.17,28.38,113.75,28.29,112.32,28.26Z" transform="translate(-2.01)"/><path class="cls-46" d="M112.18,42.07a23,23,0,0,1-8.1-2.4C107,39.81,109.85,40,112.18,42.07Z" transform="translate(-2.01)"/><path class="cls-46" d="M96.82,38c-2.2-3.49.53-4.19,2.88-5.1-.59,1.65-3.73,2.15-2.15,4.78Z" transform="translate(-2.01)"/><path class="cls-47" d="M20.26,101.08c1.18,4.56,1.18,4.57-3.2,4.56-2.47,0-4.93-.06-7.4-.09,1.14-1.16,2.62-.78,3.89-.64C16.82,105.29,19.36,104.71,20.26,101.08Z" transform="translate(-2.01)"/><path class="cls-48" d="M112.25,100.35c.21,1,.4,1.93.63,2.89.42,1.71-.11,2.47-2,2.44-3.44-.06-6.89.09-10.34.15,2-1.86,4.45-.86,6.67-.9,2.85-.06,5.11-.25,4.21-4C111.38,100.78,112,100.53,112.25,100.35Z" transform="translate(-2.01)"/><path class="cls-49" d="M57.81,95.87c3.15-1.31,3.44,2.84,5.8,3,.06.83.11,1.67.16,2.5.83.89.66,2.06.86,3.12.29,1.59,1,3,2.79,2.75s2.45-1.8,2.59-3.51c.13-1.54-1.11-2.7-1.16-4.2.45-1.21-2-2.06-.57-3.23s2.73,0,4,.83c4.91,3.34,4.6,8.64,1.3,12.34-1.78,2-4,2.82-6.68,1.51-.77-.38-1.69-1.37-2.53,0-1.42,2-.65,4.25-.62,6.35,0,2.72-1.71,2.14-3.23,2.21s-2.93.18-2.88-2.17C57.77,110.22,57.76,103,57.81,95.87Z" transform="translate(-2.01)"/><path class="cls-50" d="M71.72,48.56c-5.44,1.42-10.09-.84-11.66-5.68-.65-2-.91-3.45,2.21-3.38,8.46.19,16.92.06,25.38,0,.46.32.94.6,1,1.21a3.29,3.29,0,0,1-.16,1.08C88.09,44.17,86.78,45,84.32,45c-2.92-.07-5.94-.73-8.78.58C74.85,47.28,73.25,47.87,71.72,48.56Z" transform="translate(-2.01)"/><path class="cls-39" d="M88.06,41.3l.65-1c3.47-.19,2.45-2.93,2.78-4.9V33.65c-.86-2.16-2.46-4.15-1.57-6.73a33.22,33.22,0,0,1,16.18-7.65A7.38,7.38,0,0,1,109,19c.92,2.25-1.19,1.92-2.14,2.28-3.48,1.32-7,2.32-10.34,4.23-2.69,1.56-4.55,2.94-3.23,6.32a1.77,1.77,0,0,1-.39,1.75,7.85,7.85,0,0,1,.74,6.12c-.93,2.64.46,3,2,3.09,3.8.19,7.48,1.19,11.2,1.74a32.26,32.26,0,0,1,12,4.63c1.76,1.1.56,4.09-1.22,5.67-1.5,1.33-3.44,1.81-5.32,2.48-8.41,3-17.11,2.58-25.79,2.56-1.65,0-2.55-1.57-4.11-1.54-.51-.85.23-1.06.71-1.4l1.48,0C88.68,59,93,58,97.24,57.74c5.77.4,10.91-2.3,16.39-3.35a3.49,3.49,0,0,0,2.86-2.67c.21-1.77-1.61-2.08-2.79-2.54-6.42-2.51-13.16-3.58-20-4.37C91.4,44.54,88.48,44.82,88.06,41.3Z" transform="translate(-2.01)"/><path class="cls-51" d="M69.46,24c2.44,1.17,5.1,2,6.4,4.75,1,2.16,1,3.57-2,3.49-3.6-.09-7.21-.12-10.8,0-3,.11-4-.79-2.36-3.61a13.38,13.38,0,0,0,.75-1.69Q64,22.91,69.46,24Z" transform="translate(-2.01)"/><path class="cls-52" d="M71.72,48.56C72.64,47.21,74.8,47,75,44.92c4.31-1,8.72,0,13.05-.55,2.81,1.29,1.77,2.72.16,4.18l-1.9,1.62C84.63,49.11,87.42,46,84.5,45.8c-3.1-.25-6.45-1-9.19,1.32C74.24,48.05,73.23,48.84,71.72,48.56Z" transform="translate(-2.01)"/><path class="cls-53" d="M69.46,24a11.51,11.51,0,0,0-8,3c-1.31-1-.38-1.9.42-2.31a10.83,10.83,0,0,1,7.76-1.26s.08.22,0,.32A1,1,0,0,1,69.46,24Z" transform="translate(-2.01)"/><path class="cls-54" d="M91.49,35.42c1.38,4.61,1.15,5-2.78,4.9l-1.06-.77C91.14,40.23,90.25,36.83,91.49,35.42Z" transform="translate(-2.01)"/><path class="cls-55" d="M89.91,26.92c.17,2.33,1.69,4.34,1.57,6.73-2.53-1.23-2.13-3.94-3-6Z" transform="translate(-2.01)"/><path class="cls-56" d="M45.69,32.27a4.63,4.63,0,0,0,.64-.29c0,3,0,6.09.05,9.13,0,.29-.05.58-.07.86C44.85,38.82,45.89,35.5,45.69,32.27Z" transform="translate(-2.01)"/><path class="cls-57" d="M95.32,34.14l-2.43-.58a7.2,7.2,0,0,0-.37-1.38C91,28.79,91.83,27,95.35,25c4.5-2.54,9.45-3.53,14-5.62,6.73-3,13.68-2.06,20.62-1.15a2.66,2.66,0,0,1,2.34,2.68,6.8,6.8,0,0,1-2.53,5.4A26,26,0,0,1,122.55,30c-2.14.83-2.39-.41-1.29-2.07.69-1,.14-1.21-.76-1.17l-4.29.18a2,2,0,0,0-2.3-.82C107.22,27.6,100.4,28.77,95.32,34.14Z" transform="translate(-2.01)"/><path class="cls-58" d="M83.1,57c-.24.46-.48.93-.71,1.4a14,14,0,0,0-2.23,2c-2.86,3.75-1.87,7.12,2.76,7.46,10.66.79,21.24.56,31.24-4.43,3.71-1.85,7.31-3.43,9.46-7.16l.51,1.36c-2.69,5.08-7.71,6.8-12.63,8.49-10.68,3.67-21.66,4-32.76,2.65C75.82,63.9,77.74,58.75,83.1,57Z" transform="translate(-2.01)"/><path class="cls-59" d="M88.35,44.73,75,44.92c2.4-1.78,5.13-.67,7.68-.7s4.51-.25,5.42-2.92c1.66,2.18,4.16,2.46,6.57,2.81,6.14.91,12.28,1.78,18.18,3.8.47.16,1,.29,1.41.47,1.67.67,4,1.12,4.07,3.13s-2.13,2.75-3.67,3.29c-5.56,1.94-11.13,4-17.19,3.62-3.26.67-6.56.18-9.84.29-1.32,0-2.24-.32-1.37-1.91a2.25,2.25,0,0,1,2.86.09c2.52.64,5,0,7.55,0a20.4,20.4,0,0,0,7.49-.77,29.64,29.64,0,0,1,8.28-2.2A2.57,2.57,0,0,0,115,51.82c.11-1.2-1.39-1.54-2.23-2.13a12.73,12.73,0,0,0-2.68-1.08c-2.06-.25-4.18-.27-6-1.48-3.91-1.18-8-.83-12-1.55C90.77,45.72,89.74,44.41,88.35,44.73Z" transform="translate(-2.01)"/><path class="cls-50" d="M112.4,53.91a15.1,15.1,0,0,1-8.28,2.2c.19-1.31-.39-3.55,2.29-1.93,1,.61,1.72,0,2.19-.72C110.21,51.12,111.29,52.48,112.4,53.91Z" transform="translate(-2.01)"/><path class="cls-50" d="M88.35,44.73c1.57-1.08,2.81-.72,3.77.86.33,3.18-.93,4.24-4,3C88,47.26,90.21,46.09,88.35,44.73Z" transform="translate(-2.01)"/><path class="cls-60" d="M86.22,56.8c.19,1.85,1.59,1.51,2.77,1.53,2.81,0,5.62.06,8.44.09-3.49,1.2-7.08.45-10.62.63-1.54.08-1.52-1.4-2.23-2.13l1-.23Z" transform="translate(-2.01)"/><path class="cls-50" d="M96.63,56.88a8.83,8.83,0,0,1-7.55,0C91.6,56.92,94.11,55.07,96.63,56.88Z" transform="translate(-2.01)"/><path class="cls-50" d="M104.11,47.13c2,.36,4.16.4,6,1.48C107.73,49.72,105.76,49.07,104.11,47.13Z" transform="translate(-2.01)"/><path class="cls-61" d="M121.26,28c.38.55-.81,2.35.8,1.71,3.2-1.27,6.7-2.3,8.81-5.34s1-5.12-2.68-5.82a43.49,43.49,0,0,0-18.82.87l-3.28-.12c7.91-2.8,16-2.77,24.19-1.65,2.22.3,2.83,1.41,2.75,3.52A7.33,7.33,0,0,1,128.64,28a54,54,0,0,0-8.86,4.69c-.68.48-1.61,1-2.37.19s.18-1.36.31-2.05Z" transform="translate(-2.01)"/><path class="cls-35" d="M97.19,35.08c-2.66,1.23,3.35.39,11.52-3,6-2.47,13-4.28,12.46-4.85s-7.36-.08-13.44,2.31C97.14,33.74,98,34.72,97.19,35.08Z" transform="translate(-2.01)"/></svg>